<?xml version="1.0" encoding="UTF-8" standalone="no"?>
<svg
   xmlns:dc="http://purl.org/dc/elements/1.1/"
   xmlns:cc="http://creativecommons.org/ns#"
   xmlns:rdf="http://www.w3.org/1999/02/22-rdf-syntax-ns#"
   xmlns:svg="http://www.w3.org/2000/svg"
   xmlns="http://www.w3.org/2000/svg"
   xmlns:sodipodi="http://sodipodi.sourceforge.net/DTD/sodipodi-0.dtd"
   xmlns:inkscape="http://www.inkscape.org/namespaces/inkscape"
   version="1.1"
   id="logo-name"
   x="0px"
   y="0px"
   width="116.926px"
   height="29.117px"
   viewBox="0 0 116.926 29.117"
   enable-background="new 0 0 116.926 29.117"
   xml:space="preserve"
   inkscape:version="0.48.5 r10040"
   sodipodi:docname="logo-name.svg"><metadata
     id="metadata25"><rdf:RDF><cc:Work
         rdf:about=""><dc:format>image/svg+xml</dc:format><dc:type
           rdf:resource="http://purl.org/dc/dcmitype/StillImage" /></cc:Work></rdf:RDF></metadata><defs
     id="defs23" /><sodipodi:namedview
     pagecolor="#ffffff"
     bordercolor="#666666"
     borderopacity="1"
     objecttolerance="10"
     gridtolerance="10"
     guidetolerance="10"
     inkscape:pageopacity="0"
     inkscape:pageshadow="2"
     inkscape:window-width="640"
     inkscape:window-height="480"
     id="namedview21"
     showgrid="false"
     inkscape:zoom="3.5150436"
     inkscape:cx="58.463001"
     inkscape:cy="14.5585"
     inkscape:window-x="0"
     inkscape:window-y="0"
     inkscape:window-maximized="0"
     inkscape:current-layer="logo-name" /><g
     id="g3"
     transform="matrix(0.60917472,0,0,0.60917472,24.076283,7.1122871)"><path
       d="M 1.984,10.559 C 1.984,10.079 1.727,9.855 1.28,9.855 H 0 V 6.399 h 3.744 c 1.439,0 2.144,0.672 2.144,1.824 v 0.48 c 0,0.352 -0.032,0.704 -0.032,0.704 H 5.92 c 0.768,-1.6 2.72,-3.392 5.279,-3.392 2.464,0 4.063,1.152 4.768,3.359 h 0.064 c 0.863,-1.76 2.976,-3.359 5.567,-3.359 3.392,0 5.344,1.92 5.344,6.208 v 6.367 c 0,0.449 0.256,0.705 0.704,0.705 h 1.247 v 3.424 h -3.839 c -1.536,0 -2.176,-0.641 -2.176,-2.176 v -7.552 c 0,-1.856 -0.353,-3.264 -2.24,-3.264 -2.016,0 -3.456,1.696 -3.904,3.744 -0.191,0.641 -0.256,1.312 -0.256,2.08 v 7.168 h -4.063 v -9.728 c 0,-1.76 -0.256,-3.264 -2.208,-3.264 -2.048,0 -3.424,1.696 -3.936,3.776 -0.16,0.64 -0.256,1.312 -0.256,2.048 v 7.168 H 1.984 v -12.16 z"
       id="path5"
       inkscape:connector-curvature="0"
       style="fill:#4e4e4e" /><path
       d="m 40.255,12.479 h 0.513 v -0.128 c 0,-2.336 -0.929,-3.2 -3.008,-3.2 -0.736,0 -2.177,0.192 -2.177,1.088 v 0.864 H 31.808 V 9.375 c 0,-3.04 4.288,-3.359 5.983,-3.359 5.439,0 7.04,2.848 7.04,6.496 v 6.079 c 0,0.449 0.256,0.705 0.704,0.705 h 1.279 v 3.424 h -3.647 c -1.504,0 -2.08,-0.832 -2.08,-1.793 0,-0.416 0.032,-0.703 0.032,-0.703 h -0.064 c 0,0 -1.247,2.879 -4.928,2.879 -2.911,0 -5.567,-1.823 -5.567,-5.087 0,-5.121 7.04,-5.537 9.695,-5.537 z m -3.136,7.456 c 2.176,0 3.712,-2.304 3.712,-4.288 v -0.384 h -0.704 c -2.111,0 -5.472,0.288 -5.472,2.56 0,1.087 0.8,2.112 2.464,2.112 z"
       id="path7"
       inkscape:connector-curvature="0"
       style="fill:#4e4e4e" /><path
       d="m 50.208,10.559 c 0,-0.48 -0.257,-0.704 -0.704,-0.704 h -1.28 V 6.399 h 3.872 c 1.504,0 2.144,0.672 2.144,2.176 V 18.59 c 0,0.449 0.256,0.705 0.704,0.705 h 1.28 v 3.424 h -3.872 c -1.504,0 -2.144,-0.641 -2.144,-2.176 V 10.559 z M 50.399,0 h 3.52 v 3.744 h -3.52 V 0 z"
       id="path9"
       inkscape:connector-curvature="0"
       style="fill:#4e4e4e" /><path
       d="m 59.552,4.16 c 0,-0.48 -0.256,-0.704 -0.704,-0.704 H 57.569 V 0 h 3.871 c 1.504,0 2.176,0.672 2.176,2.176 V 18.59 c 0,0.449 0.257,0.705 0.704,0.705 h 1.248 v 3.424 h -3.84 c -1.535,0 -2.176,-0.641 -2.176,-2.176 V 4.16 z"
       id="path11"
       inkscape:connector-curvature="0"
       style="fill:#4e4e4e" /><path
       d="m 69.087,9.215 c 0,-0.448 -0.257,-0.704 -0.704,-0.704 H 67.039 V 6.624 h 2.207 c 1.376,0 1.92,0.576 1.92,1.696 0,0.64 -0.031,1.088 -0.031,1.088 h 0.063 c 0,0 1.28,-3.168 5.536,-3.168 4.319,0 7.007,3.456 7.007,8.448 0,5.087 -3.039,8.414 -7.199,8.414 -3.936,0 -5.279,-3.039 -5.279,-3.039 h -0.064 c 0,0 0.064,0.576 0.064,1.408 v 7.646 H 69.087 V 9.215 z m 7.231,11.968 c 2.848,0 5.184,-2.399 5.184,-6.495 0,-3.937 -2.08,-6.464 -5.088,-6.464 -2.688,0 -5.216,1.92 -5.216,6.496 0,3.231 1.76,6.463 5.12,6.463 z"
       id="path13"
       inkscape:connector-curvature="0"
       style="fill:#4e4e4e" /><path
       d="m 88.03,9.215 c 0,-0.448 -0.256,-0.704 -0.703,-0.704 H 85.982 V 6.624 h 2.272 c 1.376,0 1.952,0.576 1.952,1.952 v 11.552 c 0,0.479 0.256,0.703 0.703,0.703 h 1.344 v 1.889 h -2.271 c -1.376,0 -1.952,-0.576 -1.952,-1.952 V 9.215 z M 87.967,0.224 h 2.111 V 2.975 H 87.967 V 0.224 z"
       id="path15"
       inkscape:connector-curvature="0"
       style="fill:#4e4e4e" /><path
       d="m 95.871,2.816 c 0,-0.448 -0.256,-0.704 -0.704,-0.704 H 93.823 V 0.224 h 2.271 c 1.376,0 1.952,0.576 1.952,1.952 v 17.951 c 0,0.479 0.256,0.703 0.704,0.703 h 1.344 v 1.889 h -2.271 c -1.376,0 -1.952,-0.576 -1.952,-1.952 V 2.816 z"
       id="path17"
       inkscape:connector-curvature="0"
       style="fill:#4e4e4e" /><path
       d="m 110.174,6.239 c 4.448,0 6.752,3.424 6.752,7.424 0,0.384 -0.063,1.088 -0.063,1.088 h -12.352 c 0.064,4.063 2.912,6.399 6.239,6.399 2.944,0 4.832,-1.984 4.832,-1.984 l 1.056,1.633 c 0,0 -2.336,2.303 -5.983,2.303 -4.768,0 -8.415,-3.455 -8.415,-8.414 -10e-4,-5.281 3.614,-8.449 7.934,-8.449 z m 4.512,6.784 c -0.128,-3.328 -2.176,-4.959 -4.543,-4.959 -2.656,0 -4.992,1.728 -5.536,4.959 h 10.079 z"
       id="path19"
       inkscape:connector-curvature="0"
       style="fill:#4e4e4e" /></g></svg>